/* XPM */
static char *loading[] = {
/* columns rows colors chars-per-pixel */
"240 24 3 1",
"  c None",
". c #FFDD00",
"+ c #990000",
/* pixels */
"   ......                  ...............            .........         ...............            ..................   ......         ......         ...............                                                                           ",
"   .++++.                  .+++++++++++++.            .+++++++.         .+++++++++++++.            .++++++++++++++++.   .++++.         .++++.         .+++++++++++++.                                                                           ",
"   .++++.                  .+...........+.            .+++++++.         .++++........+.            .......++++.......   .++++.         .++++.         .+.............                                                                           ",
"   .++++.               ....+.         .+....      ....+.....+....      .++++.      .+....               .++++.         .++++....      .++++.      ....+.                                                                                       ",
"   .++++.               .++++.         .++++.      .++++.   .++++.      .++++.      .++++.               .++++.         .+++++++.      .++++.      .++++.                                                                                       ",
"   .++++.               .++++.         .++++.      .++++.   .++++.      .++++.      ....+.               .++++.         .+++++++.      .++++.      .+....                                                                                       ",
"   .++++.               .++++.         .++++.   ....+....   ....+....   .++++.         .+....            .++++.         .+++++++....   .++++.   ....+.                                                                                          ",
"   .++++.               .++++.         .++++.   .++++.         .++++.   .++++.         .++++.            .++++.         .++++++++++.   .++++.   .++++.                                                                                          ",
"   .++++.               .++++.         .++++.   .++++.         .++++.   .++++.         .++++.            .++++.         .++++++++++.   .++++.   .++++.                                                                                          ",
"   .++++.               .++++.         .++++.   .++++.         .++++.   .++++.         .++++.            .++++.         .++++++++++.....++++.   .++++.   ............                                                                           ",
"   .++++.               .++++.         .++++.   .++++.         .++++.   .++++.         .++++.            .++++.         .+++++++++++++++++++.   .++++.   .++++++++++.                                                                           ",
"   .++++.               .++++.         .++++.   .++++.         .++++.   .++++.         .++++.            .++++.         .++++.....++++++++++.   .++++.   .......++++.                                                                           ",
"   .++++.               .++++.         .++++.   .++++...........++++.   .++++.         .++++.            .++++.         .++++.   .++++++++++.   .++++.         .++++.      ......                  ......                  ......               ",
"   .++++.               .++++.         .++++.   .+++++++++++++++++++.   .++++.         .++++.            .++++.         .++++.   .++++++++++.   .++++.         .++++.      .++++.                  .++++.                  .++++.               ",
"   .++++.               .++++.         .++++.   .++++...........++++.   .++++.         .+....            .++++.         .++++.   ....+++++++.   ....+....      .++++.      .++++.                  .++++.                  .++++.               ",
"   .++++.               .++++.         .++++.   .++++.         .++++.   .++++.      ....+.               .++++.         .++++.      .+++++++.      .++++.      .++++.      .++++.                  .++++.                  .++++.               ",
"   .++++.               .++++.         .++++.   .++++.         .++++.   .++++.      .++++.               .++++.         .++++.      .+++++++.      .++++.      .++++.      .++++.                  .++++.                  .++++.               ",
"   .++++.               ....+.         .+....   .++++.         .++++.   .++++.      .+....               .++++.         .++++.      ....++++.      .++++.      .++++.      ......                  ......                  ......               ",
"   .++++.............      .+...........+.      .++++.         .++++.   .++++........+.            .......++++.......   .++++.         .++++.      .++++........++++.                                                                           ",
"   .++++++++++++++++.      .+++++++++++++.      .++++.         .++++.   .+++++++++++++.            .++++++++++++++++.   .++++.         .++++.      .++++++++++++++++.                                                                           ",
"   ..................      ...............      ......         ......   ...............            ..................   ......         ......      ..................                                                                           ",
"                                                                                                                                                                                                                                                ",
"                                                                                                                                                                                                                                                ",
"                                                                                                                                                                                                                                                "
};
